# xmcd CD database file
#
# Track frame offsets:
#	150
#	33546
#	54076
#	76756
#	104029
#	130932
#	152315
#	177618
#	199905
#	225755
#
# Disc length: 3854 seconds
#
# Revision: 0
# Processed by: cddbd v1.5.2PL0 Copyright (c) Steve Scherf et al.
# Submitted via: jetAudio 7
#
DISCID=740f0c0a
DTITLE=张维良 - 秋江夜泊
DYEAR=1900
DGENRE=Folk
TTITLE0=秋江夜泊
TTITLE1=傍妆台
TTITLE2=太湖春
TTITLE3=南韵
TTITLE4=平沙落雁
TTITLE5=梧桐月
TTITLE6=熏风曲
TTITLE7=三五七
TTITLE8=梅花三弄
TTITLE9=清明上河图
EXTD=
EXTT0=
EXTT1=
EXTT2=
EXTT3=
EXTT4=
EXTT5=
EXTT6=
EXTT7=
EXTT8=
EXTT9=
PLAYORDER=
